<?xml version="1.0" encoding="UTF-8" standalone="no"?>
<svg
   version="1.1"
   viewBox="0 0 48 48"
   enable-background="new 0 0 48 48"
   id="svg15"
   sodipodi:docname="calendar.svg"
   inkscape:version="1.4.3 (0d15f75, 2025-12-25)"
   inkscape:export-filename="calendar.png"
   inkscape:export-xdpi="512"
   inkscape:export-ydpi="512"
   xmlns:inkscape="http://www.inkscape.org/namespaces/inkscape"
   xmlns:sodipodi="http://sodipodi.sourceforge.net/DTD/sodipodi-0.dtd"
   xmlns="http://www.w3.org/2000/svg"
   xmlns:svg="http://www.w3.org/2000/svg">
  <defs
     id="defs15" />
  <sodipodi:namedview
     id="namedview15"
     pagecolor="#505050"
     bordercolor="#eeeeee"
     borderopacity="1"
     inkscape:showpageshadow="0"
     inkscape:pageopacity="0"
     inkscape:pagecheckerboard="0"
     inkscape:deskcolor="#505050"
     inkscape:zoom="39.229167"
     inkscape:cx="24.025491"
     inkscape:cy="24"
     inkscape:window-width="3840"
     inkscape:window-height="2089"
     inkscape:window-x="-8"
     inkscape:window-y="-8"
     inkscape:window-maximized="1"
     inkscape:current-layer="svg15" />
  <path
     fill="#cfd8dc"
     d="M 1.2018056,41.699497 V 13.589525 H 46.747212 v 28.109972 c 0,2.576748 -2.157414,4.684995 -4.794253,4.684995 h -35.9569 c -2.6368394,0 -4.7942534,-2.108247 -4.7942534,-4.684995 z"
     id="path1"
     style="stroke-width:1.18483" />
  <path
     fill="#f44336"
     d="M 46.747212,8.9045305 V 15.932023 H 1.2018056 V 8.9045305 c 0,-2.5767475 2.157414,-4.6849954 4.7942534,-4.6849954 h 35.9569 c 2.636839,0 4.794253,2.1082479 4.794253,4.6849954 z"
     id="path2"
     style="stroke-width:1.18483" />
  <g
     fill="#b71c1c"
     id="g3"
     transform="matrix(1.1985633,0,0,1.1712488,-4.791011,-2.8079579)">
    <circle
       cx="33"
       cy="10"
       r="3"
       id="circle2" />
    <circle
       cx="15"
       cy="10"
       r="3"
       id="circle3" />
  </g>
  <g
     fill="#b0bec5"
     id="g4"
     transform="matrix(1.1985633,0,0,1.1712488,-4.791011,-2.8079579)">
    <path
       d="m 33,3 c -1.1,0 -2,0.9 -2,2 v 5 c 0,1.1 0.9,2 2,2 1.1,0 2,-0.9 2,-2 V 5 C 35,3.9 34.1,3 33,3 Z"
       id="path3" />
    <path
       d="m 15,3 c -1.1,0 -2,0.9 -2,2 v 5 c 0,1.1 0.9,2 2,2 1.1,0 2,-0.9 2,-2 V 5 C 17,3.9 16.1,3 15,3 Z"
       id="path4" />
  </g>
  <g
     fill="#90a4ae"
     id="g15"
     transform="matrix(1.1985633,0,0,1.1712488,-4.791011,-2.8079579)">
    <rect
       x="13"
       y="20"
       width="4"
       height="4"
       id="rect4" />
    <rect
       x="19"
       y="20"
       width="4"
       height="4"
       id="rect5" />
    <rect
       x="25"
       y="20"
       width="4"
       height="4"
       id="rect6" />
    <rect
       x="31"
       y="20"
       width="4"
       height="4"
       id="rect7" />
    <rect
       x="13"
       y="26"
       width="4"
       height="4"
       id="rect8" />
    <rect
       x="19"
       y="26"
       width="4"
       height="4"
       id="rect9" />
    <rect
       x="25"
       y="26"
       width="4"
       height="4"
       id="rect10" />
    <rect
       x="31"
       y="26"
       width="4"
       height="4"
       id="rect11" />
    <rect
       x="13"
       y="32"
       width="4"
       height="4"
       id="rect12" />
    <rect
       x="19"
       y="32"
       width="4"
       height="4"
       id="rect13" />
    <rect
       x="25"
       y="32"
       width="4"
       height="4"
       id="rect14" />
    <rect
       x="31"
       y="32"
       width="4"
       height="4"
       id="rect15" />
  </g>
</svg>
