<?xml version="1.0" encoding="UTF-8" standalone="no"?>
<!-- Uploaded to: SVG Repo, www.svgrepo.com, Generator: SVG Repo Mixer Tools -->

<svg
   fill="#000000"
   height="800px"
   width="800px"
   version="1.1"
   id="Layer_1"
   viewBox="0 0 507.9 507.9"
   xml:space="preserve"
   sodipodi:docname="rdups.svg"
   inkscape:version="1.4.3 (0d15f75, 2025-12-25)"
   xmlns:inkscape="http://www.inkscape.org/namespaces/inkscape"
   xmlns:sodipodi="http://sodipodi.sourceforge.net/DTD/sodipodi-0.dtd"
   xmlns="http://www.w3.org/2000/svg"
   xmlns:svg="http://www.w3.org/2000/svg"><defs
   id="defs14" /><sodipodi:namedview
   id="namedview14"
   pagecolor="#505050"
   bordercolor="#eeeeee"
   borderopacity="1"
   inkscape:showpageshadow="0"
   inkscape:pageopacity="0"
   inkscape:pagecheckerboard="0"
   inkscape:deskcolor="#505050"
   inkscape:zoom="1.6643526"
   inkscape:cx="243.03744"
   inkscape:cy="398.65351"
   inkscape:window-width="3840"
   inkscape:window-height="2089"
   inkscape:window-x="-8"
   inkscape:window-y="-8"
   inkscape:window-maximized="1"
   inkscape:current-layer="Layer_1" />







<text
   xml:space="preserve"
   style="font-style:normal;font-variant:normal;font-weight:normal;font-stretch:normal;font-size:129.282px;font-family:Consolas;-inkscape-font-specification:Consolas;writing-mode:lr-tb;direction:ltr;fill:#ffffff;stroke:none;stroke-width:38.174"
   x="298.35538"
   y="238.58025"
   id="text17"
   inkscape:export-filename="RCheckFiles.png"
   inkscape:export-xdpi="96"
   inkscape:export-ydpi="96"
   transform="scale(0.76207937,1.3121993)"><tspan
     sodipodi:role="line"
     id="tspan17"
     style="font-size:129.282px;fill:#ffffff;stroke-width:38.174"
     x="298.35538"
     y="238.58025">=</tspan></text><g
   id="g28"
   transform="translate(0,0.38145462)"><g
     id="g15"
     style="fill:#ffffff;fill-opacity:1"
     transform="matrix(0.4919032,0,0,0.53735765,255.67412,70.950565)">
	<g
   id="g14"
   style="fill:#ffffff;fill-opacity:1">
		<path
   d="M -77.941558,172.64863 -162.26715,90.590497 c -8.76109,-8.525519 -20.36955,-13.214555 -32.7446,-13.214555 h -260.42367 c -25.62622,0 -46.32431,20.248112 -46.32431,45.078688 V 573.5612 c 0,24.83057 20.80761,45.07868 46.32431,45.07868 h 344.74925 c 25.516701,0 46.324311,-20.24811 46.324311,-45.07868 V 204.51276 c 0,-12.0423 -4.818607,-23.33862 -13.579699,-31.86413 z m -88.815642,-43.90643 49.60971,48.27576 h -49.60971 z m 71.512468,444.92556 c 0,8.31239 -6.899368,15.02623 -15.441438,15.02623 h -344.74925 c -8.54207,0 -15.44144,-6.71384 -15.44144,-15.02623 V 122.45463 c 0,-8.31238 6.89937,-15.02623 15.44144,-15.02623 h 257.79534 v 84.61579 c 0,8.31238 6.89937,15.02622 15.44144,15.02622 h 86.953908 z"
   id="path14"
   style="fill:#ffffff;fill-opacity:1;stroke-width:1.08031" />
	</g>
</g><path
     style="fill:#faf1d4;fill-opacity:1;stroke-width:23.9953"
     d="M 27.846185,131.9833 H 160.97385 l 19.07273,19.45419 27.08328,27.46473 v 205.9855 H 27.083275 V 131.9833 Z"
     id="path3"
     sodipodi:nodetypes="cccccccc" /><g
     id="g17"
     transform="matrix(0.4919032,0,0,0.53735765,-8.6739433,122.06548)"
     style="fill:#000000;fill-opacity:1"><g
       id="g2"
       style="fill:#000000;fill-opacity:1">
	<g
   id="g1"
   style="fill:#000000;fill-opacity:1">
		<path
   d="m 441.25,89.4 -77,-77 C 356.25,4.4 345.65,0 334.35,0 H 96.55 c -23.4,0 -42.3,19 -42.3,42.3 v 423.3 c 0,23.3 19,42.3 42.3,42.3 h 314.8 c 23.3,0 42.3,-19 42.3,-42.3 V 119.3 c 0,-11.3 -4.4,-21.9 -12.4,-29.9 z m -81.1,-41.2 45.3,45.3 h -45.3 z m 65.3,417.5 c 0,7.8 -6.3,14.1 -14.1,14.1 H 96.55 c -7.8,0 -14.1,-6.3 -14.1,-14.1 V 42.3 c 0,-7.8 6.3,-14.1 14.1,-14.1 h 235.4 v 79.4 c 0,7.8 6.3,14.1 14.1,14.1 h 79.4 z"
   id="path1"
   style="fill:#000000;fill-opacity:1" />
	</g>
</g><g
       id="g4"
       style="fill:#000000;fill-opacity:1">
	<g
   id="g3"
   style="fill:#000000;fill-opacity:1">
		<path
   d="m 207.55,413.7 h -86 c -7.8,0 -14.1,6.3 -14.1,14.1 0,7.8 6.3,14.1 14.1,14.1 h 86 c 7.8,0 14.1,-6.3 14.1,-14.1 0.1,-7.8 -6.3,-14.1 -14.1,-14.1 z"
   id="path2"
   style="fill:#000000;fill-opacity:1" />
	</g>
</g><g
       id="g6"
       style="fill:#000000;fill-opacity:1">
	<g
   id="g5"
   style="fill:#000000;fill-opacity:1">
		<path
   d="m 293.65,326.8 h -172 c -7.8,0 -14.1,6.3 -14.1,14.1 0,7.8 6.3,14.1 14.1,14.1 h 172 c 7.8,0 14.1,-6.3 14.1,-14.1 0,-7.8 -6.3,-14.1 -14.1,-14.1 z"
   id="path4"
   style="fill:#000000;fill-opacity:1" />
	</g>
</g><g
       id="g8"
       style="fill:#000000;fill-opacity:1">
	<g
   id="g7"
   style="fill:#000000;fill-opacity:1">
		<path
   d="m 386.25,239.9 h -264.6 c -7.8,0 -14.1,6.3 -14.1,14.1 0,7.8 6.3,14.1 14.1,14.1 h 264.7 c 7.8,0 14.1,-6.3 14.1,-14.1 -0.1,-7.8 -6.4,-14.1 -14.2,-14.1 z"
   id="path6"
   style="fill:#000000;fill-opacity:1" />
	</g>
</g><g
       id="g10"
       style="fill:#000000;fill-opacity:1">
	<g
   id="g9"
   style="fill:#000000;fill-opacity:1">
		<path
   d="m 386.35,153 h -264.7 c -7.8,0 -14.1,6.3 -14.1,14.1 0,7.8 6.3,14.1 14.1,14.1 h 264.7 c 7.8,0 14.1,-6.3 14.1,-14.1 0,-7.8 -6.3,-14.1 -14.1,-14.1 z"
   id="path8"
   style="fill:#000000;fill-opacity:1" />
	</g>
</g><g
       id="g12"
       style="fill:#000000;fill-opacity:1">
	<g
   id="g11"
   style="fill:#000000;fill-opacity:1">
		<path
   d="m 221.35,66.1 h -99.7 c -7.8,0 -14.1,6.3 -14.1,14.1 0,7.8 6.3,14.1 14.1,14.1 h 99.7 c 7.8,0 14.1,-6.3 14.1,-14.1 0,-7.8 -6.3,-14.1 -14.1,-14.1 z"
   id="path10"
   style="fill:#000000;fill-opacity:1" />
	</g>
</g></g></g><g
   id="g44"
   transform="translate(274.64733,0.38145462)"
   inkscape:export-filename="rdups.png"
   inkscape:export-xdpi="96"
   inkscape:export-ydpi="96"><g
     id="g30"
     style="fill:#ffffff;fill-opacity:1"
     transform="matrix(0.4919032,0,0,0.53735765,255.67412,70.950565)">
	<g
   id="g29"
   style="fill:#ffffff;fill-opacity:1">
		<path
   d="M -77.941558,172.64863 -162.26715,90.590497 c -8.76109,-8.525519 -20.36955,-13.214555 -32.7446,-13.214555 h -260.42367 c -25.62622,0 -46.32431,20.248112 -46.32431,45.078688 V 573.5612 c 0,24.83057 20.80761,45.07868 46.32431,45.07868 h 344.74925 c 25.516701,0 46.324311,-20.24811 46.324311,-45.07868 V 204.51276 c 0,-12.0423 -4.818607,-23.33862 -13.579699,-31.86413 z m -88.815642,-43.90643 49.60971,48.27576 h -49.60971 z m 71.512468,444.92556 c 0,8.31239 -6.899368,15.02623 -15.441438,15.02623 h -344.74925 c -8.54207,0 -15.44144,-6.71384 -15.44144,-15.02623 V 122.45463 c 0,-8.31238 6.89937,-15.02623 15.44144,-15.02623 h 257.79534 v 84.61579 c 0,8.31238 6.89937,15.02622 15.44144,15.02622 h 86.953908 z"
   id="path28"
   style="fill:#ffffff;fill-opacity:1;stroke-width:1.08031" />
	</g>
</g><path
     style="fill:#faf1d4;fill-opacity:1;stroke-width:23.9953"
     d="M 27.846185,131.9833 H 160.97385 l 19.07273,19.45419 27.08328,27.46473 v 205.9855 H 27.083275 V 131.9833 Z"
     id="path30"
     sodipodi:nodetypes="cccccccc" /><g
     id="g43"
     transform="matrix(0.4919032,0,0,0.53735765,-8.6739433,122.06548)"
     style="fill:#000000;fill-opacity:1"><g
       id="g32"
       style="fill:#000000;fill-opacity:1">
	<g
   id="g31"
   style="fill:#000000;fill-opacity:1">
		<path
   d="m 441.25,89.4 -77,-77 C 356.25,4.4 345.65,0 334.35,0 H 96.55 c -23.4,0 -42.3,19 -42.3,42.3 v 423.3 c 0,23.3 19,42.3 42.3,42.3 h 314.8 c 23.3,0 42.3,-19 42.3,-42.3 V 119.3 c 0,-11.3 -4.4,-21.9 -12.4,-29.9 z m -81.1,-41.2 45.3,45.3 h -45.3 z m 65.3,417.5 c 0,7.8 -6.3,14.1 -14.1,14.1 H 96.55 c -7.8,0 -14.1,-6.3 -14.1,-14.1 V 42.3 c 0,-7.8 6.3,-14.1 14.1,-14.1 h 235.4 v 79.4 c 0,7.8 6.3,14.1 14.1,14.1 h 79.4 z"
   id="path31"
   style="fill:#000000;fill-opacity:1" />
	</g>
</g><g
       id="g34"
       style="fill:#000000;fill-opacity:1">
	<g
   id="g33"
   style="fill:#000000;fill-opacity:1">
		<path
   d="m 207.55,413.7 h -86 c -7.8,0 -14.1,6.3 -14.1,14.1 0,7.8 6.3,14.1 14.1,14.1 h 86 c 7.8,0 14.1,-6.3 14.1,-14.1 0.1,-7.8 -6.3,-14.1 -14.1,-14.1 z"
   id="path32"
   style="fill:#000000;fill-opacity:1" />
	</g>
</g><g
       id="g36"
       style="fill:#000000;fill-opacity:1">
	<g
   id="g35"
   style="fill:#000000;fill-opacity:1">
		<path
   d="m 293.65,326.8 h -172 c -7.8,0 -14.1,6.3 -14.1,14.1 0,7.8 6.3,14.1 14.1,14.1 h 172 c 7.8,0 14.1,-6.3 14.1,-14.1 0,-7.8 -6.3,-14.1 -14.1,-14.1 z"
   id="path34"
   style="fill:#000000;fill-opacity:1" />
	</g>
</g><g
       id="g38"
       style="fill:#000000;fill-opacity:1">
	<g
   id="g37"
   style="fill:#000000;fill-opacity:1">
		<path
   d="m 386.25,239.9 h -264.6 c -7.8,0 -14.1,6.3 -14.1,14.1 0,7.8 6.3,14.1 14.1,14.1 h 264.7 c 7.8,0 14.1,-6.3 14.1,-14.1 -0.1,-7.8 -6.4,-14.1 -14.2,-14.1 z"
   id="path36"
   style="fill:#000000;fill-opacity:1" />
	</g>
</g><g
       id="g40"
       style="fill:#000000;fill-opacity:1">
	<g
   id="g39"
   style="fill:#000000;fill-opacity:1">
		<path
   d="m 386.35,153 h -264.7 c -7.8,0 -14.1,6.3 -14.1,14.1 0,7.8 6.3,14.1 14.1,14.1 h 264.7 c 7.8,0 14.1,-6.3 14.1,-14.1 0,-7.8 -6.3,-14.1 -14.1,-14.1 z"
   id="path38"
   style="fill:#000000;fill-opacity:1" />
	</g>
</g><g
       id="g42"
       style="fill:#000000;fill-opacity:1">
	<g
   id="g41"
   style="fill:#000000;fill-opacity:1">
		<path
   d="m 221.35,66.1 h -99.7 c -7.8,0 -14.1,6.3 -14.1,14.1 0,7.8 6.3,14.1 14.1,14.1 h 99.7 c 7.8,0 14.1,-6.3 14.1,-14.1 0,-7.8 -6.3,-14.1 -14.1,-14.1 z"
   id="path40"
   style="fill:#000000;fill-opacity:1" />
	</g>
</g></g></g></svg>
