<?xml version="1.0" encoding="UTF-8" standalone="no"?>
<!-- Uploaded to: SVG Repo, www.svgrepo.com, Generator: SVG Repo Mixer Tools -->

<svg
   fill="#000000"
   height="800px"
   width="800px"
   version="1.1"
   id="Layer_1"
   viewBox="0 0 507.9 507.9"
   xml:space="preserve"
   sodipodi:docname="RCheckFiles.svg"
   inkscape:version="1.4.3 (0d15f75, 2025-12-25)"
   xmlns:inkscape="http://www.inkscape.org/namespaces/inkscape"
   xmlns:sodipodi="http://sodipodi.sourceforge.net/DTD/sodipodi-0.dtd"
   xmlns="http://www.w3.org/2000/svg"
   xmlns:svg="http://www.w3.org/2000/svg"><defs
   id="defs14" /><sodipodi:namedview
   id="namedview14"
   pagecolor="#505050"
   bordercolor="#eeeeee"
   borderopacity="1"
   inkscape:showpageshadow="0"
   inkscape:pageopacity="0"
   inkscape:pagecheckerboard="0"
   inkscape:deskcolor="#505050"
   inkscape:zoom="1.6643526"
   inkscape:cx="243.03744"
   inkscape:cy="398.65351"
   inkscape:window-width="3840"
   inkscape:window-height="2089"
   inkscape:window-x="-8"
   inkscape:window-y="-8"
   inkscape:window-maximized="1"
   inkscape:current-layer="Layer_1" />
<rect
   style="fill:#ffffff;stroke:none;stroke-width:23.9953"
   id="rect14"
   width="547.00592"
   height="547.00592"
   x="-17.928368"
   y="-20.598551" />




<g
   id="g17"
   transform="matrix(0.77173847,0,0,0.78970802,44.043922,9.9178203)"><g
     id="g2">
	<g
   id="g1">
		<path
   d="m 441.25,89.4 -77,-77 C 356.25,4.4 345.65,0 334.35,0 H 96.55 c -23.4,0 -42.3,19 -42.3,42.3 v 423.3 c 0,23.3 19,42.3 42.3,42.3 h 314.8 c 23.3,0 42.3,-19 42.3,-42.3 V 119.3 c 0,-11.3 -4.4,-21.9 -12.4,-29.9 z m -81.1,-41.2 45.3,45.3 h -45.3 z m 65.3,417.5 c 0,7.8 -6.3,14.1 -14.1,14.1 H 96.55 c -7.8,0 -14.1,-6.3 -14.1,-14.1 V 42.3 c 0,-7.8 6.3,-14.1 14.1,-14.1 h 235.4 v 79.4 c 0,7.8 6.3,14.1 14.1,14.1 h 79.4 z"
   id="path1" />
	</g>
</g><g
     id="g4">
	<g
   id="g3">
		<path
   d="m 207.55,413.7 h -86 c -7.8,0 -14.1,6.3 -14.1,14.1 0,7.8 6.3,14.1 14.1,14.1 h 86 c 7.8,0 14.1,-6.3 14.1,-14.1 0.1,-7.8 -6.3,-14.1 -14.1,-14.1 z"
   id="path2" />
	</g>
</g><g
     id="g6">
	<g
   id="g5">
		<path
   d="m 293.65,326.8 h -172 c -7.8,0 -14.1,6.3 -14.1,14.1 0,7.8 6.3,14.1 14.1,14.1 h 172 c 7.8,0 14.1,-6.3 14.1,-14.1 0,-7.8 -6.3,-14.1 -14.1,-14.1 z"
   id="path4" />
	</g>
</g><g
     id="g8">
	<g
   id="g7">
		<path
   d="m 386.25,239.9 h -264.6 c -7.8,0 -14.1,6.3 -14.1,14.1 0,7.8 6.3,14.1 14.1,14.1 h 264.7 c 7.8,0 14.1,-6.3 14.1,-14.1 -0.1,-7.8 -6.4,-14.1 -14.2,-14.1 z"
   id="path6" />
	</g>
</g><g
     id="g10">
	<g
   id="g9">
		<path
   d="m 386.35,153 h -264.7 c -7.8,0 -14.1,6.3 -14.1,14.1 0,7.8 6.3,14.1 14.1,14.1 h 264.7 c 7.8,0 14.1,-6.3 14.1,-14.1 0,-7.8 -6.3,-14.1 -14.1,-14.1 z"
   id="path8" />
	</g>
</g><g
     id="g12">
	<g
   id="g11">
		<path
   d="m 221.35,66.1 h -99.7 c -7.8,0 -14.1,6.3 -14.1,14.1 0,7.8 6.3,14.1 14.1,14.1 h 99.7 c 7.8,0 14.1,-6.3 14.1,-14.1 0,-7.8 -6.3,-14.1 -14.1,-14.1 z"
   id="path10" />
	</g>
</g></g>

<g
   id="g16"
   transform="translate(17.546908,-86.971654)"><rect
     style="fill:#00d455;stroke:none;stroke-width:23.9953"
     id="rect15"
     width="180.42801"
     height="156.01492"
     x="301.34915"
     y="362.00046" /><g
     id="g14"
     transform="translate(77.053837,49.589102)"
     style="fill:#ffffff">
	<g
   id="g13"
   style="fill:#ffffff">
		<g
   id="g15"
   style="fill:#ffffff"><path
     d="m 387.95,339.9 c -5.6,-5.6 -14.5,-5.6 -20,0 l -75.4,75.4 -34.7,-34.7 c -5.5,-5.5 -14.4,-5.5 -20,0 -5.5,5.5 -5.5,14.4 0,20 l 44.7,44.7 c 2.8,2.8 6.4,4.1 10,4.1 3.6,0 7.2,-1.4 10,-4.1 l 85.4,-85.4 c 5.5,-5.5 5.5,-14.4 0,-20 z"
     id="path12"
     style="fill:#ffffff" /></g>
	</g>
</g></g><text
   xml:space="preserve"
   style="font-style:normal;font-variant:normal;font-weight:normal;font-stretch:normal;font-size:81.264px;font-family:Consolas;-inkscape-font-specification:Consolas;writing-mode:lr-tb;direction:ltr;fill:#ffffff;stroke:none;stroke-width:23.9953"
   x="-9.5363626"
   y="498.94266"
   id="text17"
   inkscape:export-filename="RCheckFiles.png"
   inkscape:export-xdpi="96"
   inkscape:export-ydpi="96"><tspan
     sodipodi:role="line"
     id="tspan17"
     style="font-size:81.264px;fill:#000080;stroke-width:23.9953"
     x="-9.5363626"
     y="498.94266">Filename.ext</tspan></text></svg>
